name rise30.3154peak39.0474fall46.5389.mot
datacolumns 19
datarows 26
range 20.69327200000000 20.73492600000000
endheader
time	ground_force1_vx	ground_force1_vy	ground_force1_vz	ground_force1_px	ground_force1_py	ground_force1_pz	ground_force2_vx	ground_force2_vy	ground_force2_vz	ground_force2_px	ground_force2_py	ground_force2_pz	ground_torque1_x	ground_torque1_y	ground_torque1_z	ground_torque2_x	ground_torque2_y	ground_torque2_z	
20.69327200000000	-9.52816900000000	41.82534100000000	-8.49283100000000	0.33373200000000	0.00000000000000	0.09811300000000	-43.30443900000000	764.32252700000004	-56.42640000000000	0.15385100000000	0.00000000000000	-0.07260200000000	0.00000000000000	-5.51915300000000	0.00000000000000	0.00000000000000	-21.19423300000000	0.00000000000000	
20.69492500000000	-10.43197400000000	49.30598300000000	-9.50303500000000	0.33744400000000	0.00000000000000	0.09902800000000	-43.43087000000000	761.11180200000001	-56.17247500000000	0.15308700000000	0.00000000000000	-0.07262800000000	0.00000000000000	-6.24683600000000	0.00000000000000	0.00000000000000	-21.05381200000000	0.00000000000000	
20.69658900000000	-11.15076400000000	56.95661300000000	-10.40323100000000	0.34091700000000	0.00000000000000	0.09984600000000	-43.57493500000000	757.81008699999995	-55.89712100000000	0.15231500000000	0.00000000000000	-0.07265000000000	0.00000000000000	-6.92016800000000	0.00000000000000	0.00000000000000	-20.91239600000000	0.00000000000000	
20.69827200000000	-11.65857900000000	64.68511100000001	-11.17055200000000	0.34419400000000	0.00000000000000	0.10058300000000	-43.73699800000000	754.41725399999996	-55.60011000000000	0.15153700000000	0.00000000000000	-0.07267000000000	0.00000000000000	-7.52372300000000	0.00000000000000	0.00000000000000	-20.77010600000000	0.00000000000000	
20.69992700000000	-11.94017600000000	72.42010500000001	-11.79005200000000	0.34730600000000	0.00000000000000	0.10125200000000	-43.91733500000000	750.93308500000001	-55.28122300000000	0.15075300000000	0.00000000000000	-0.07268700000000	0.00000000000000	-8.04681400000000	0.00000000000000	0.00000000000000	-20.62705200000000	0.00000000000000	
20.70159500000000	-11.99084700000000	80.11341000000000	-12.25476200000000	0.35027900000000	0.00000000000000	0.10186300000000	-44.11612900000000	747.35726799999998	-54.94025000000000	0.14996400000000	0.00000000000000	-0.07270000000000	0.00000000000000	-8.48365100000000	0.00000000000000	0.00000000000000	-20.48333000000000	0.00000000000000	
20.70327200000000	-11.81541900000000	87.74014800000000	-12.56509300000000	0.35313300000000	0.00000000000000	0.10242500000000	-44.33346800000000	743.68939499999999	-54.57699200000000	0.14917100000000	0.00000000000000	-0.07270900000000	0.00000000000000	-8.83307300000000	0.00000000000000	0.00000000000000	-20.33903000000000	0.00000000000000	
20.70492500000000	-11.42663800000000	95.29691600000000	-12.72773800000000	0.35588400000000	0.00000000000000	0.10294400000000	-44.56934600000000	739.92896699999994	-54.19126100000000	0.14837600000000	0.00000000000000	-0.07271500000000	0.00000000000000	-9.09794300000000	0.00000000000000	0.00000000000000	-20.19422600000000	0.00000000000000	
20.70659300000000	-10.84319000000000	102.79849600000000	-12.75424500000000	0.35854400000000	0.00000000000000	0.10342400000000	-44.82365700000000	736.07538999999997	-53.78288600000000	0.14757800000000	0.00000000000000	-0.07271700000000	0.00000000000000	-9.28432000000000	0.00000000000000	0.00000000000000	-20.04898300000000	0.00000000000000	
20.70827500000000	-10.08757800000000	110.27363500000000	-12.65944700000000	0.36112500000000	0.00000000000000	0.10387200000000	-45.09620000000000	732.12798399999997	-53.35170800000000	0.14678000000000	0.00000000000000	-0.07271400000000	0.00000000000000	-9.40051000000000	0.00000000000000	0.00000000000000	-19.90335400000000	0.00000000000000	
20.70992000000000	-9.18405400000000	117.76039800000000	-12.45989500000000	0.36363500000000	0.00000000000000	0.10429100000000	-45.38667200000000	728.08597699999996	-52.89759000000000	0.14598200000000	0.00000000000000	-0.07270800000000	0.00000000000000	-9.45609600000000	0.00000000000000	0.00000000000000	-19.75737800000000	0.00000000000000	
20.71158700000000	-8.15677000000000	125.30156300000000	-12.17242400000000	0.36608100000000	0.00000000000000	0.10468300000000	-45.69467200000000	723.94851500000004	-52.42041200000000	0.14518500000000	0.00000000000000	-0.07269700000000	0.00000000000000	-9.46102500000000	0.00000000000000	0.00000000000000	-19.61108300000000	0.00000000000000	
20.71327100000000	-7.02825400000000	132.94039599999999	-11.81294600000000	0.36846900000000	0.00000000000000	0.10505100000000	-46.01969800000000	719.71466199999998	-51.92007800000000	0.14439100000000	0.00000000000000	-0.07268100000000	0.00000000000000	-9.42482600000000	0.00000000000000	0.00000000000000	-19.46448500000000	0.00000000000000	
20.71492300000000	-5.81827500000000	140.71709000000001	-11.39552100000000	0.37080400000000	0.00000000000000	0.10539900000000	-46.36114900000000	715.38340700000003	-51.39651500000000	0.14360200000000	0.00000000000000	-0.07266000000000	0.00000000000000	-9.35599100000000	0.00000000000000	0.00000000000000	-19.31758600000000	0.00000000000000	
20.71659600000000	-4.54311900000000	148.66602300000000	-10.93173400000000	0.37308900000000	0.00000000000000	0.10572600000000	-46.71832500000000	710.95366600000000	-50.84967700000000	0.14281700000000	0.00000000000000	-0.07263500000000	0.00000000000000	-9.26153400000000	0.00000000000000	0.00000000000000	-19.17037700000000	0.00000000000000	
20.71827200000000	-3.21525200000000	156.81388500000000	-10.43037100000000	0.37532800000000	0.00000000000000	0.10603700000000	-47.09042800000000	706.42429200000004	-50.27955000000000	0.14203900000000	0.00000000000000	-0.07260400000000	0.00000000000000	-9.14674900000000	0.00000000000000	0.00000000000000	-19.02283700000000	0.00000000000000	
20.71992900000000	-1.84334000000000	165.17868600000000	-9.89736000000000	0.37752500000000	0.00000000000000	0.10633100000000	-47.47656100000000	701.79407600000002	-49.68614800000000	0.14126900000000	0.00000000000000	-0.07256800000000	0.00000000000000	-9.01513200000000	0.00000000000000	0.00000000000000	-18.87493000000000	0.00000000000000	
20.72159000000000	-0.43254500000000	173.76952800000001	-9.33594500000000	0.37968000000000	0.00000000000000	0.10661000000000	-47.87573400000000	697.06175699999994	-49.06952000000000	0.14050900000000	0.00000000000000	-0.07252600000000	0.00000000000000	-8.86845500000000	0.00000000000000	0.00000000000000	-18.72661100000000	0.00000000000000	
20.72328400000000	1.01497000000000	182.58705300000000	-8.74702600000000	0.38179700000000	0.00000000000000	0.10687500000000	-48.28686200000000	692.22603000000004	-48.42975200000000	0.13975900000000	0.00000000000000	-0.07247900000000	0.00000000000000	-8.70695700000000	0.00000000000000	0.00000000000000	-18.57782100000000	0.00000000000000	
20.72492900000000	2.49939100000000	191.62437299999999	-8.12961400000000	0.38387600000000	0.00000000000000	0.10712800000000	-48.70876800000000	687.28555200000005	-47.76697000000000	0.13902200000000	0.00000000000000	-0.07242600000000	0.00000000000000	-8.52961900000000	0.00000000000000	0.00000000000000	-18.42849000000000	0.00000000000000	
20.72659200000000	4.02256200000000	200.86835600000001	-7.48135200000000	0.38591800000000	0.00000000000000	0.10736800000000	-49.14018800000000	682.23895600000003	-47.08133800000000	0.13829900000000	0.00000000000000	-0.07236700000000	0.00000000000000	-8.33447800000000	0.00000000000000	0.00000000000000	-18.27853400000000	0.00000000000000	
20.72826000000000	5.58727800000000	210.30108400000000	-6.79903800000000	0.38792600000000	0.00000000000000	0.10759700000000	-49.57977000000000	677.08485299999995	-46.37306600000000	0.13759100000000	0.00000000000000	-0.07230200000000	0.00000000000000	-8.11897100000000	0.00000000000000	0.00000000000000	-18.12786100000000	0.00000000000000	
20.72992600000000	7.19664600000000	219.90135200000000	-6.07912400000000	0.38989900000000	0.00000000000000	0.10781600000000	-50.02608200000000	671.82185000000004	-45.64240600000000	0.13689900000000	0.00000000000000	-0.07223000000000	0.00000000000000	-7.88024700000000	0.00000000000000	0.00000000000000	-17.97636400000000	0.00000000000000	
20.73158700000000	8.85353000000000	229.64609700000000	-5.31814800000000	0.39183800000000	0.00000000000000	0.10802500000000	-50.47761100000000	666.44856000000004	-44.88966000000000	0.13622600000000	0.00000000000000	-0.07215200000000	0.00000000000000	-7.61546300000000	0.00000000000000	0.00000000000000	-17.82392800000000	0.00000000000000	
20.73326100000000	10.56011900000000	239.51165399999999	-4.51308900000000	0.39374300000000	0.00000000000000	0.10822400000000	-50.93277100000000	660.96361200000001	-44.11517600000000	0.13557300000000	0.00000000000000	-0.07206800000000	0.00000000000000	-7.32202400000000	0.00000000000000	0.00000000000000	-17.67042600000000	0.00000000000000	
20.73492600000000	12.31761400000000	249.47479200000001	-3.66162800000000	0.39561600000000	0.00000000000000	0.10841400000000	-51.38990200000000	655.36567000000002	-43.31935400000000	0.13494100000000	0.00000000000000	-0.07197700000000	0.00000000000000	-6.99775900000000	0.00000000000000	0.00000000000000	-17.51572100000000	0.00000000000000	
